<mxfile host="app.diagrams.net" modified="2022-04-01T03:47:22.926Z" agent="5.0 (Windows NT 10.0; Win64; x64) AppleWebKit/537.36 (KHTML, like Gecko) Chrome/99.0.4844.74 Safari/537.36 Edg/99.0.1150.55" etag="z3V0Bs2BmDPD0gFfxG0S" version="17.2.5" type="github">
  <diagram id="YptrSxRqz9t_l7t8lWpm" name="Page-1">
    <mxGraphModel dx="1038" dy="579" grid="1" gridSize="10" guides="1" tooltips="1" connect="1" arrows="1" fold="1" page="1" pageScale="1" pageWidth="850" pageHeight="1100" math="0" shadow="0">
      <root>
        <mxCell id="0" />
        <mxCell id="1" parent="0" />
        <mxCell id="SMkTGXZ7AHQv7SSz3kvF-1" value="" style="edgeStyle=orthogonalEdgeStyle;rounded=0;orthogonalLoop=1;jettySize=auto;html=1;" edge="1" parent="1" source="SMkTGXZ7AHQv7SSz3kvF-2" target="SMkTGXZ7AHQv7SSz3kvF-5">
          <mxGeometry relative="1" as="geometry" />
        </mxCell>
        <mxCell id="SMkTGXZ7AHQv7SSz3kvF-2" value="New promise&lt;br&gt;status - pending" style="rounded=1;whiteSpace=wrap;html=1;" vertex="1" parent="1">
          <mxGeometry x="80" y="270" width="120" height="60" as="geometry" />
        </mxCell>
        <mxCell id="SMkTGXZ7AHQv7SSz3kvF-3" value="yes" style="edgeStyle=orthogonalEdgeStyle;rounded=0;orthogonalLoop=1;jettySize=auto;html=1;entryX=0;entryY=0.5;entryDx=0;entryDy=0;" edge="1" parent="1" source="SMkTGXZ7AHQv7SSz3kvF-5" target="SMkTGXZ7AHQv7SSz3kvF-8">
          <mxGeometry relative="1" as="geometry" />
        </mxCell>
        <mxCell id="SMkTGXZ7AHQv7SSz3kvF-4" value="no" style="edgeStyle=orthogonalEdgeStyle;rounded=0;orthogonalLoop=1;jettySize=auto;html=1;entryX=-0.03;entryY=0.637;entryDx=0;entryDy=0;entryPerimeter=0;" edge="1" parent="1" source="SMkTGXZ7AHQv7SSz3kvF-5" target="SMkTGXZ7AHQv7SSz3kvF-11">
          <mxGeometry relative="1" as="geometry" />
        </mxCell>
        <mxCell id="SMkTGXZ7AHQv7SSz3kvF-5" value="populate the default pop,truck,tower,vehicles" style="shape=parallelogram;perimeter=parallelogramPerimeter;whiteSpace=wrap;html=1;fixedSize=1;" vertex="1" parent="1">
          <mxGeometry x="240" y="265" width="150" height="75" as="geometry" />
        </mxCell>
        <mxCell id="SMkTGXZ7AHQv7SSz3kvF-6" style="edgeStyle=orthogonalEdgeStyle;rounded=0;orthogonalLoop=1;jettySize=auto;html=1;entryX=0.5;entryY=0;entryDx=0;entryDy=0;" edge="1" parent="1" source="SMkTGXZ7AHQv7SSz3kvF-8" target="SMkTGXZ7AHQv7SSz3kvF-12">
          <mxGeometry relative="1" as="geometry" />
        </mxCell>
        <mxCell id="SMkTGXZ7AHQv7SSz3kvF-7" value="return&amp;nbsp;" style="edgeStyle=orthogonalEdgeStyle;rounded=0;orthogonalLoop=1;jettySize=auto;html=1;entryX=0.5;entryY=0.167;entryDx=0;entryDy=0;entryPerimeter=0;exitX=0.5;exitY=0;exitDx=0;exitDy=0;" edge="1" parent="1" source="SMkTGXZ7AHQv7SSz3kvF-8" target="SMkTGXZ7AHQv7SSz3kvF-2">
          <mxGeometry relative="1" as="geometry" />
        </mxCell>
        <mxCell id="SMkTGXZ7AHQv7SSz3kvF-8" value="then call start simulation interval,user elixir" style="rounded=1;whiteSpace=wrap;html=1;" vertex="1" parent="1">
          <mxGeometry x="460" y="190" width="120" height="60" as="geometry" />
        </mxCell>
        <mxCell id="SMkTGXZ7AHQv7SSz3kvF-9" style="edgeStyle=orthogonalEdgeStyle;rounded=0;orthogonalLoop=1;jettySize=auto;html=1;entryX=0.5;entryY=1;entryDx=0;entryDy=0;" edge="1" parent="1" source="SMkTGXZ7AHQv7SSz3kvF-11" target="SMkTGXZ7AHQv7SSz3kvF-12">
          <mxGeometry relative="1" as="geometry" />
        </mxCell>
        <mxCell id="SMkTGXZ7AHQv7SSz3kvF-10" value="return" style="edgeStyle=orthogonalEdgeStyle;rounded=0;orthogonalLoop=1;jettySize=auto;html=1;entryX=0.5;entryY=1;entryDx=0;entryDy=0;exitX=0.5;exitY=1;exitDx=0;exitDy=0;" edge="1" parent="1" source="SMkTGXZ7AHQv7SSz3kvF-11" target="SMkTGXZ7AHQv7SSz3kvF-2">
          <mxGeometry relative="1" as="geometry" />
        </mxCell>
        <mxCell id="SMkTGXZ7AHQv7SSz3kvF-11" value="catch handling" style="rounded=1;whiteSpace=wrap;html=1;" vertex="1" parent="1">
          <mxGeometry x="460" y="320" width="120" height="60" as="geometry" />
        </mxCell>
        <mxCell id="SMkTGXZ7AHQv7SSz3kvF-12" value="end" style="ellipse;whiteSpace=wrap;html=1;aspect=fixed;" vertex="1" parent="1">
          <mxGeometry x="640" y="240" width="80" height="80" as="geometry" />
        </mxCell>
      </root>
    </mxGraphModel>
  </diagram>
</mxfile>
